<svg width="24" height="25" viewBox="0 0 24 25" fill="none" xmlns="http://www.w3.org/2000/svg">
<g opacity="0.2">
<path d="M12 5.82275C4.5 5.82275 1.5 12.5728 1.5 12.5728C1.5 12.5728 4.5 19.3228 12 19.3228C19.5 19.3228 22.5 12.5728 22.5 12.5728C22.5 12.5728 19.5 5.82275 12 5.82275ZM12 16.3228C11.2583 16.3228 10.5333 16.1028 9.91661 15.6908C9.29993 15.2787 8.81928 14.693 8.53545 14.0078C8.25162 13.3226 8.17736 12.5686 8.32205 11.8412C8.46675 11.1137 8.8239 10.4456 9.34835 9.9211C9.8728 9.39666 10.541 9.0395 11.2684 8.89481C11.9958 8.75011 12.7498 8.82438 13.4351 9.10821C14.1203 9.39203 14.706 9.87268 15.118 10.4894C15.5301 11.106 15.75 11.8311 15.75 12.5728C15.75 13.5673 15.3549 14.5211 14.6517 15.2244C13.9484 15.9277 12.9946 16.3228 12 16.3228Z" fill="#CFE5E6"/>
<path d="M1.59184 12.6214C1.58207 12.6012 1.57438 12.5849 1.56875 12.5728C1.57438 12.5607 1.58207 12.5443 1.59184 12.5241C1.61535 12.4752 1.65092 12.4033 1.69892 12.3117C1.79492 12.1284 1.94058 11.8662 2.13883 11.5514C2.53538 10.9216 3.14195 10.0817 3.98169 9.24195C5.66083 7.56281 8.27079 5.88525 12 5.88525C15.7292 5.88525 18.3392 7.56281 20.0183 9.24195C20.8581 10.0817 21.4646 10.9216 21.8612 11.5514C22.0594 11.8662 22.2051 12.1284 22.3011 12.3117C22.3491 12.4033 22.3847 12.4752 22.4082 12.5241C22.4179 12.5443 22.4256 12.5607 22.4312 12.5728C22.4256 12.5849 22.4179 12.6012 22.4082 12.6214C22.3847 12.6703 22.3491 12.7422 22.3011 12.8338C22.2051 13.0171 22.0594 13.2793 21.8612 13.5941C21.4646 14.224 20.8581 15.0638 20.0183 15.9036C18.3392 17.5827 15.7292 19.2603 12 19.2603C8.27079 19.2603 5.66083 17.5827 3.98169 15.9036C3.14195 15.0638 2.53538 14.224 2.13883 13.5941C1.94058 13.2793 1.79492 13.0171 1.69892 12.8338C1.65092 12.7422 1.61535 12.6703 1.59184 12.6214ZM9.88189 15.7427C10.5089 16.1617 11.246 16.3853 12 16.3853C13.0111 16.3853 13.9809 15.9836 14.6958 15.2686C15.4108 14.5536 15.8125 13.5839 15.8125 12.5728C15.8125 11.8187 15.5889 11.0816 15.17 10.4546C14.7511 9.82768 14.1556 9.33902 13.459 9.05046C12.7623 8.7619 11.9958 8.6864 11.2562 8.83351C10.5167 8.98062 9.83734 9.34372 9.30416 9.87691C8.77097 10.4101 8.40786 11.0894 8.26076 11.829C8.11365 12.5685 8.18915 13.3351 8.47771 14.0317C8.76627 14.7284 9.25493 15.3238 9.88189 15.7427Z" stroke="#135155" stroke-opacity="0.35" stroke-width="0.125"/>
</g>
<path d="M12 5.82275C4.5 5.82275 1.5 12.5728 1.5 12.5728C1.5 12.5728 4.5 19.3228 12 19.3228C19.5 19.3228 22.5 12.5728 22.5 12.5728C22.5 12.5728 19.5 5.82275 12 5.82275Z" fill="#CFE5E6" fill-opacity="0.26" stroke="#135155" stroke-opacity="0.35" stroke-width="2" stroke-linecap="round" stroke-linejoin="round"/>
<path d="M12 16.3228C14.0711 16.3228 15.75 14.6438 15.75 12.5728C15.75 10.5017 14.0711 8.82275 12 8.82275C9.92893 8.82275 8.25 10.5017 8.25 12.5728C8.25 14.6438 9.92893 16.3228 12 16.3228Z" stroke="#135155" stroke-opacity="0.35" stroke-width="2" stroke-linecap="round" stroke-linejoin="round"/>
</svg>
