<svg width="20" height="20" viewBox="0 0 20 20" fill="none" xmlns="http://www.w3.org/2000/svg">
<path fill-rule="evenodd" clip-rule="evenodd" d="M1.79932 9.96689C1.79932 5.42601 5.48021 1.74512 10.0211 1.74512C14.562 1.74512 18.2429 5.42601 18.2429 9.96689C18.2429 14.5078 14.562 18.1887 10.0211 18.1887C5.48021 18.1887 1.79932 14.5078 1.79932 9.96689ZM13.0689 8.90382C13.2187 8.74875 13.3015 8.54107 13.2997 8.3255C13.2978 8.10993 13.2113 7.90371 13.0589 7.75128C12.9065 7.59884 12.7002 7.51237 12.4847 7.5105C12.2691 7.50862 12.0614 7.59149 11.9063 7.74126L9.19892 10.4487L7.72475 8.97453C7.56969 8.82476 7.362 8.74189 7.14643 8.74376C6.93086 8.74564 6.72465 8.8321 6.57221 8.98454C6.41977 9.13698 6.3333 9.34319 6.33143 9.55877C6.32955 9.77434 6.41243 9.98202 6.56219 10.1371L8.61764 12.1925C8.77182 12.3467 8.9809 12.4333 9.19892 12.4333C9.41693 12.4333 9.62601 12.3467 9.7802 12.1925L13.0689 8.90382Z" fill="#FFC51E"/>
</svg>
