<svg width="214" height="194" viewBox="0 0 214 194" fill="none" xmlns="http://www.w3.org/2000/svg">
<g clip-path="url(#clip0_7_21)">
<path d="M46.9003 88.4897V130.915L129.929 152.902L183.549 131.83L186.067 39.2595L135.452 46.8576L127.725 45.7674L127.129 87.7036L87.5824 95.3374L46.9003 88.4897Z" fill="#68A7B1"/>
<path opacity="0.5" d="M46.4562 93.2092L87.5824 102.453L132.376 88.4043L133.597 46.8577L127.725 45.7675L46.9003 88.4898L46.4562 93.2092Z" fill="black"/>
<path d="M47.6747 51.9239L131.357 68.9967L185.295 52.3538V50.2399L131.357 66.859L47.6747 50.1188V51.9239Z" fill="#0D1A36"/>
<path d="M46.9882 76.2504L130.67 87.0669L184.608 73.2092V69.6818L130.67 83.5395L46.9882 74.4453V76.2504Z" fill="#0D1A36"/>
<path d="M56.5673 60.9258C57.6325 60.9258 58.496 60.0623 58.496 58.9972C58.496 57.932 57.6325 57.0685 56.5673 57.0685C55.5022 57.0685 54.6387 57.932 54.6387 58.9972C54.6387 60.0623 55.5022 60.9258 56.5673 60.9258Z" stroke="#EC1C24" stroke-width="0.471343" stroke-miterlimit="10"/>
<path d="M2 27.6187L3.67925 81.2146L87.5824 95.3374V30.1388L2 27.6187Z" fill="#3F8BCA"/>
<path d="M87.5824 30.1388L127.97 28.5355L127.129 87.7035L87.5824 95.3374V30.1388Z" fill="#0D1A36"/>
<path d="M2 27.6187L33.9366 26.5L123.823 28.6994L87.5824 30.1388L2 27.6187Z" fill="#00393A"/>
<path d="M35.4639 42.3804L12.1539 51.3372L34.3452 53.4749L57.9616 43.9077L37.7013 42.5324L35.4639 42.3804Z" fill="#00253A"/>
<path opacity="0.5" d="M87.5824 78.5164L127.97 53.9285L127.129 87.7035L87.5824 95.3374V78.5164Z" fill="black"/>
<path d="M44.0145 70.0678L66.0015 73.2221L57.9616 43.9077L39.1193 51.5415L44.0145 70.0678Z" fill="#00253A"/>
<path d="M38.6205 42.3804L55.0092 41.1572L76.0794 42.3804L57.9615 43.9077L38.6205 42.3804Z" fill="#7EAEB1"/>
<path d="M122.673 31.7943H121.061C119.037 31.7943 117.389 33.4236 117.37 35.4496L116.94 77.8964C116.916 80.1528 118.906 81.9033 121.141 81.5898L123.182 81.3048C125.006 81.0507 126.362 79.4902 126.362 77.6494V35.4853C126.367 33.445 124.714 31.7943 122.673 31.7943Z" fill="#7EAEB1"/>
<path opacity="0.5" d="M123.127 59.6028L121.087 59.8879C119.289 60.1396 117.65 59.0542 117.092 57.4462L116.885 77.8632C116.861 80.1196 118.852 81.8701 121.087 81.5566L123.127 81.2716C124.951 81.0174 126.307 79.4569 126.307 77.6162V55.9451C126.307 57.7882 124.949 59.3463 123.127 59.6028Z" fill="black"/>
<path d="M75.3669 42.5324L76.0795 72.3076L66.0016 73.2221L57.9616 43.9076L75.3669 42.5324Z" fill="#00253A"/>
<path d="M120.156 35.559L119.749 78.5164H123.823V35.559H120.156Z" fill="#0D2945"/>
<path d="M121.633 67.6238L120.792 68.9231V71.8232L122.395 68.7687L121.633 67.6238Z" fill="#0D2945"/>
<path opacity="0.4" d="M79.1077 55.8667H78.6968C78.6826 55.8667 78.6683 55.8714 78.6541 55.8714C79.2977 55.926 79.8084 56.4652 79.8084 57.1279V58.021C79.8084 58.6979 79.2716 59.2513 78.5994 59.2774C78.6374 59.2798 78.6731 59.2869 78.7134 59.2869L79.1647 59.2798C79.8535 59.2703 80.4093 58.7098 80.4093 58.0186V57.1255C80.4069 56.4177 79.8179 55.8453 79.1077 55.8667Z" fill="black"/>
<path d="M78.7135 55.8691H78.3026C77.6874 55.8691 77.1886 56.3678 77.1886 56.983V58.173C77.1886 58.7953 77.6969 59.2964 78.3192 59.2869L78.7705 59.2798C79.4593 59.2703 80.0151 58.7098 80.0151 58.0186V57.1255C80.0103 56.4177 79.4237 55.8477 78.7135 55.8691Z" fill="#FBB040"/>
<path d="M77.2337 59.7715C78.1061 59.7715 78.8132 58.7889 78.8132 57.5768C78.8132 56.3647 78.1061 55.3821 77.2337 55.3821C76.3614 55.3821 75.6542 56.3647 75.6542 57.5768C75.6542 58.7889 76.3614 59.7715 77.2337 59.7715Z" fill="#ED1C24"/>
<path opacity="0.4" d="M77.2599 55.3845C77.6993 55.7741 77.9914 56.4557 77.9914 57.2348C77.9914 58.4461 77.2836 59.4294 76.4119 59.4294C76.3977 59.4294 76.381 59.4271 76.3668 59.4271C76.6114 59.6456 76.9012 59.7715 77.2147 59.7715C78.0864 59.7715 78.7942 58.7881 78.7942 57.5768C78.7942 56.3868 78.1125 55.4178 77.2599 55.3845Z" fill="black"/>
<g opacity="0.4">
<path d="M78.4616 55.8691H78.255C78.2407 55.8691 78.2265 55.8762 78.2098 55.8786C78.388 56.28 78.502 56.8904 78.502 57.5768C78.502 58.2632 78.388 58.876 78.2098 59.2798C78.2265 59.2822 78.2431 59.2893 78.2621 59.2893L78.4877 59.2822C78.8321 59.2727 79.11 58.7121 79.11 58.021V57.1279C79.11 56.4177 78.8179 55.8477 78.4616 55.8691Z" fill="black"/>
</g>
<path opacity="0.2" d="M106.731 43.6036C107.529 43.6036 108.175 42.5094 108.175 41.1596C108.175 39.8098 107.529 38.7155 106.731 38.7155C105.933 38.7155 105.287 39.8098 105.287 41.1596C105.287 42.5094 105.933 43.6036 106.731 43.6036Z" fill="white"/>
<path d="M106.809 38.7179C107.135 39.1668 107.344 39.8485 107.344 40.6133C107.344 41.9624 106.698 43.0573 105.9 43.0573C105.888 43.0573 105.878 43.055 105.867 43.055C106.116 43.397 106.432 43.6013 106.776 43.6013C107.574 43.6013 108.22 42.5063 108.22 41.1572C108.22 39.8271 107.591 38.7488 106.809 38.7179Z" fill="#3F8BCA"/>
<path d="M106.921 36.7418H106.377V37.8296H106.921V36.7418Z" fill="#FFF200"/>
<path d="M109.006 38.079H108.463V39.1668H109.006V38.079Z" fill="#FFF200"/>
<path d="M105 38.1716H104.456V39.2595H105V38.1716Z" fill="#FFF200"/>
<path d="M105 43.3638H104.456V44.4516H105V43.3638Z" fill="#FFF200"/>
<path d="M107.047 44.6796H106.503V45.7674H107.047V44.6796Z" fill="#FFF200"/>
<path d="M109.006 43.2284H108.463V44.3162H109.006V43.2284Z" fill="#FFF200"/>
<path d="M127.87 35.559L127.725 45.7675L135.452 46.8577L186.067 39.2595L127.87 35.559Z" fill="#74B6CF"/>
<path d="M46.9003 130.915V144.656L52.5604 146.259V132.414L46.9003 130.915Z" fill="#0D1A36"/>
<path d="M117.103 152.902L52.5604 135.623V144.261L117.103 162.802V152.902Z" fill="#9AD6CB"/>
<path d="M142.857 152.902L130.744 155.676L117.103 152.902V165.55L131.252 168.604L142.857 164.633V152.902Z" fill="#0D1A36"/>
<path d="M142.857 152.902L186.067 134.604L185.509 145.19L142.857 164.633" stroke="#EC1C24" stroke-width="0.471343" stroke-miterlimit="10"/>
<path d="M179.096 138.677L178.585 146.209L142.857 161.681V164.633L185.509 145.19L186.067 134.604L179.036 137.582L179.096 138.677Z" fill="#0D1A36"/>
<path d="M117.103 165.55L52.5604 146.259V144.261L117.103 162.802V165.55Z" fill="#0D1A36"/>
<path d="M183.549 131.83L186.067 134.604L179.036 137.582L177.155 134.343L183.549 131.83Z" fill="#0D1A36"/>
<path d="M45.537 48.9406L48.6461 61.9376L62.9114 62.8901L58.3225 45.2235L55.154 44.9646L45.537 48.9406Z" fill="#7EAEB1"/>
<path opacity="0.2" d="M48.6461 61.9376H50.5723L47.6746 50.1187L58.8356 47.202L58.3225 45.2235L55.154 44.9646L45.537 48.9406L48.6461 61.9376Z" fill="black"/>
<path d="M50.6744 47.0548V61.4793L52.5603 62.1989L62.9114 62.8901L58.8355 47.2021L50.6744 47.0548Z" fill="#9AD6CB"/>
<path d="M57.4912 61.7524C58.7033 61.7524 59.6859 60.7698 59.6859 59.5577C59.6859 58.3456 58.7033 57.363 57.4912 57.363C56.2792 57.363 55.2966 58.3456 55.2966 59.5577C55.2966 60.7698 56.2792 61.7524 57.4912 61.7524Z" fill="#4DA54D"/>
<path opacity="0.4" d="M56.4414 60.1562C56.4414 58.9449 57.4247 57.9616 58.6361 57.9616C58.7738 57.9616 58.9068 57.9758 59.0351 57.9996C58.6384 57.6053 58.0921 57.363 57.4889 57.363C56.2775 57.363 55.2942 58.3464 55.2942 59.5577C55.2942 60.6337 56.0685 61.5267 57.0898 61.7144C56.6908 61.3153 56.4414 60.7643 56.4414 60.1562Z" fill="white"/>
<path d="M53.7242 49.0356V56.3251L61.2583 56.5293L59.4508 49.3777L53.7242 49.0356Z" fill="#7EAEB1"/>
<path d="M123.823 78.5163L119.749 76.191V78.5163H123.823Z" fill="#3F8BCA"/>
<path opacity="0.5" d="M46.9003 130.915L46.9882 114.296L129.929 118.975L185.259 68.9966L183.549 131.83L131.613 151.009L94.5369 143.109L46.9003 130.915Z" fill="black"/>
<path d="M52.5604 132.414V135.623L117.103 152.902L130.744 155.676L142.857 152.902L179.036 137.582L177.155 134.343L131.613 151.009L117.103 148.259L52.5604 132.414Z" fill="#0D1A36"/>
<path d="M142.857 152.902V161.681L178.585 146.209L179.036 137.582L142.857 152.902Z" fill="#9AD6CB"/>
<path d="M46.9003 97.7482L130.583 109.239L184.2 98.1531V95.6335L130.583 106.72L46.9003 95.943V97.7482Z" fill="#0D1A36"/>
<path d="M46.9003 120.783L130.583 137.853L183.832 121.422L183.889 119.291L130.583 135.715L46.9003 118.975V120.783Z" fill="#0D1A36"/>
<path opacity="0.4" d="M44.0145 70.0679L66.0015 73.2221L76.0794 72.3077V75.2743L66.0015 77.3929L44.7912 74.4453L44.2021 71.1225L44.0145 70.0679Z" fill="black"/>
<path opacity="0.1" d="M43.4088 72.1177L19.4861 74.4453L35.0577 77.3929L61.9186 76.8253L44.7912 74.4453L44.3779 72.1177H43.4088Z" fill="black"/>
<path opacity="0.5" d="M66.0015 73.2221L62.6288 60.9258L75.5497 50.1188L76.0794 72.3077L66.0015 73.2221Z" fill="black"/>
<path opacity="0.5" d="M18.8899 51.9856L28.2956 52.893L40.7035 42.7343L35.4639 42.3804L12.1539 51.3372L18.8899 51.9856Z" fill="white"/>
<path opacity="0.6" d="M57.9615 41.3282L40.7035 42.7343L35.4638 42.3804L55.0092 41.1572L57.9615 41.3282Z" fill="white"/>
<path opacity="0.6" d="M37.7013 42.5324L21.847 52.2707L12.1539 51.3372L35.4639 42.3804L37.7013 42.5324Z" fill="white"/>
<path opacity="0.4" d="M64.8424 68.9967L43.1618 66.8376L44.0145 70.0679L66.0015 73.2221L64.8424 68.9967Z" fill="black"/>
<path opacity="0.4" d="M40.0266 54.9736L46.4562 52.7813L45.537 48.9407L39.1193 51.5415L40.0266 54.9736Z" fill="black"/>
<path opacity="0.2" d="M53.7242 56.318V54.5746L60.5695 53.8051L61.2583 56.5294L53.7242 56.318Z" fill="black"/>
<path opacity="0.2" d="M55.1541 53.235L56.3369 51.0475L57.4912 51.3016L56.3226 53.235H55.1541Z" fill="white"/>
<path opacity="0.4" d="M57.7549 52.1733L58.7097 50.1188L59.237 50.4679L58.3297 52.2731L57.7549 52.1733Z" fill="white"/>
<path opacity="0.2" d="M3.67929 81.2146L87.5824 78.5164V95.3374L3.67929 81.2146Z" fill="black"/>
<path opacity="0.4" d="M2 27.6187L50.6745 29.0533L80.4069 27.6187L33.9366 26.5L2 27.6187Z" fill="white"/>
<path opacity="0.4" d="M2.32777 38.079L62.9114 29.0533L2 27.6187L2.32777 38.079Z" fill="white"/>
<path opacity="0.8" d="M127.725 45.7675L160.947 37.2881L127.87 35.559L127.725 45.7675Z" fill="white" fill-opacity="0.4"/>
<path opacity="0.4" d="M52.5604 144.261L117.103 152.902L52.5604 135.623V144.261Z" fill="black"/>
<path opacity="0.4" d="M142.857 161.681L170.139 141.349L142.857 152.902V161.681Z" fill="black"/>
<path opacity="0.5" d="M117.103 158.185L129.979 160.752L142.857 158.185V164.633L131.252 168.604L117.103 165.55V158.185Z" fill="black"/>
</g>
<defs>
<clipPath id="clip0_7_21">
<rect width="184.197" height="142.104" fill="white" transform="translate(2 26.5)"/>
</clipPath>
</defs>
</svg>
