<svg width="88" height="88" viewBox="0 0 88 88" fill="none" xmlns="http://www.w3.org/2000/svg">
<path fill-rule="evenodd" clip-rule="evenodd" d="M21.6324 66.5146H27.1324V60.6846H21.6324V66.5146ZM9.16577 78.8346H39.6358V48.3646H9.16577V78.8346Z" fill="#FFC51E"/>
<path fill-rule="evenodd" clip-rule="evenodd" d="M53.8782 14.6649H62.7919V9.16492H48.3782V29.7679H53.8782V14.6649Z" fill="#FFC51E"/>
<path fill-rule="evenodd" clip-rule="evenodd" d="M48.3808 39.6158H62.0208V34.1158H48.3808V39.6158Z" fill="#FFC51E"/>
<path fill-rule="evenodd" clip-rule="evenodd" d="M67.0929 9.16492V14.6649H73.3335V20.9019H78.8335V9.16492H67.0929Z" fill="#FFC51E"/>
<path fill-rule="evenodd" clip-rule="evenodd" d="M73.3324 34.1151H67.0918V39.6151H78.8324V25.2051H73.3324V34.1151Z" fill="#FFC51E"/>
<path fill-rule="evenodd" clip-rule="evenodd" d="M56.897 17.8355V31.4718H69.1033V25.9718H62.397V17.8355H56.897Z" fill="#FFC51E"/>
<path fill-rule="evenodd" clip-rule="evenodd" d="M71.2916 17.7995L65.7916 17.8362V23.3362H71.2916V17.7995Z" fill="#FFC51E"/>
<g opacity="0.4">
<path fill-rule="evenodd" clip-rule="evenodd" d="M60.8658 66.5152H66.3658V60.6852H60.8658V66.5152ZM48.3624 78.8352H78.8324V48.3652H48.3624V78.8352Z" fill="#FFC51E"/>
<path fill-rule="evenodd" clip-rule="evenodd" d="M21.6324 27.3185H27.1324V21.4518H21.6324V27.3185ZM9.16577 39.6018H39.6358V9.16846H9.16577V39.6018Z" fill="#FFC51E"/>
</g>
</svg>
