<svg width="92" height="92" viewBox="0 0 92 92" fill="none" xmlns="http://www.w3.org/2000/svg">
<path opacity="0.4" fill-rule="evenodd" clip-rule="evenodd" d="M84.2812 44.0216C66.4779 39.4319 52.566 25.52 47.9763 7.71666L46 0.0522461L44.0237 7.71666C39.434 25.52 25.5221 39.4319 7.71875 44.0216L0.0543365 45.9979L7.71875 47.9783C25.5221 52.568 39.434 66.4799 44.0237 84.2792L46 91.9477L47.9763 84.2792C52.566 66.4799 66.4779 52.568 84.2812 47.9783L91.9457 45.9979L84.2812 44.0216Z" fill="#FFC51E"/>
<path fill-rule="evenodd" clip-rule="evenodd" d="M73.5661 28.6333C73.5661 23.8885 78.7683 18.429 83.7704 18.429C78.9561 18.429 73.5661 12.9125 73.5661 8.22888C73.5661 12.9125 68.2251 18.429 63.3659 18.429C68.0414 18.429 73.5661 23.8599 73.5661 28.6333Z" fill="#FFC51E"/>
</svg>
