<svg width="72" height="74" viewBox="0 0 72 74" fill="none" xmlns="http://www.w3.org/2000/svg">
<path opacity="0.4" fill-rule="evenodd" clip-rule="evenodd" d="M46.8725 9.52084C46.8725 8.7977 46.9093 8.07456 47.0197 7.38757H0.000274658V73.2296H66.9974V24.9961C65.7833 25.3215 64.4588 25.4661 63.1343 25.4661C54.1572 25.4661 46.8725 18.307 46.8725 9.52084Z" fill="#FFC51E"/>
<path d="M28.036 39.3864L39.8092 48.4618L53.3117 31.3595L48.9335 28.0331L38.8527 40.8327L27.0794 31.7211L13.393 49.2211L17.7344 52.5476L28.036 39.3864Z" fill="#FFC51E"/>
<path fill-rule="evenodd" clip-rule="evenodd" d="M63.1334 0.770508C58.976 0.770508 55.4808 3.59076 54.5243 7.38725C54.3403 8.07423 54.2299 8.79737 54.2299 9.52051C54.2299 14.3294 58.2402 18.2344 63.1334 18.2344C64.4947 18.2344 65.8192 17.909 66.9965 17.3666C69.9398 15.9565 72.0002 12.9554 72.0002 9.52051C72.0002 4.67547 68.0267 0.770508 63.1334 0.770508Z" fill="#FFC51E"/>
</svg>
