<svg width="80" height="80" viewBox="0 0 80 80" fill="none" xmlns="http://www.w3.org/2000/svg">
<path fill-rule="evenodd" clip-rule="evenodd" d="M53.2994 36.2241H53.3994C60.4994 36.2241 66.2661 30.4575 66.2661 23.3575C66.2661 16.2575 60.4994 10.4908 53.3994 10.4908C51.9994 10.4908 50.6661 10.7241 49.3994 11.1241C51.6994 14.5241 53.0327 18.6241 53.0327 23.0241C53.0327 27.6575 51.5327 31.9575 48.9994 35.4575C50.3327 35.9575 51.7994 36.2241 53.2994 36.2241Z" fill="#FFC51E"/>
<path fill-rule="evenodd" clip-rule="evenodd" d="M31.7237 39.2518H31.8237C40.767 39.2518 48.0404 31.9784 48.0404 23.0384C48.0404 14.0951 40.767 6.82178 31.8237 6.82178C22.887 6.82178 15.6137 14.0951 15.6137 23.0318C15.597 27.3484 17.2604 31.4118 20.3037 34.4751C23.347 37.5384 27.4004 39.2351 31.7237 39.2518Z" fill="#FFC51E"/>
<g opacity="0.4">
<path fill-rule="evenodd" clip-rule="evenodd" d="M53.4006 41.0242C49.6339 41.0242 46.0672 41.7908 43.0672 43.0575C53.6006 46.1242 61.0339 53.4242 61.2006 61.9242C66.6672 61.1908 72.5339 59.1575 72.5339 53.4908C72.5339 46.7242 63.7672 41.0242 53.4006 41.0242Z" fill="#FFC51E"/>
<path fill-rule="evenodd" clip-rule="evenodd" d="M31.8292 46.4882C18.6225 46.4882 7.46582 53.7049 7.46582 62.2482C7.46582 72.0449 21.3692 73.1782 31.8292 73.1782C37.8558 73.1782 56.1925 73.1782 56.1925 62.1816C56.1925 53.6749 45.0358 46.4882 31.8292 46.4882Z" fill="#FFC51E"/>
</g>
</svg>
