<svg width="80" height="80" viewBox="0 0 80 80" fill="none" xmlns="http://www.w3.org/2000/svg">
<path d="M39.8301 48.4664C28.3301 48.4664 18.627 50.3456 18.627 57.5981C18.627 64.8535 28.3928 66.6667 39.8301 66.6667C51.33 66.6667 61.0332 64.7875 61.0332 57.535C61.0332 50.2795 51.2674 48.4664 39.8301 48.4664" fill="#FFC51E"/>
<path opacity="0.4" d="M39.8301 41.5568C47.6171 41.5568 53.8611 35.2769 53.8611 27.4451C53.8611 19.6103 47.6171 13.3334 39.8301 13.3334C32.0431 13.3334 25.7991 19.6103 25.7991 27.4451C25.7991 35.2769 32.0431 41.5568 39.8301 41.5568" fill="#FFC51E"/>
<path opacity="0.4" d="M70.2932 30.7309C72.3078 22.806 66.4011 15.6886 58.8798 15.6886C58.062 15.6886 57.28 15.7787 56.5159 15.9317C56.4144 15.9558 56.301 16.0068 56.2413 16.0969C56.1727 16.2109 56.2234 16.364 56.298 16.4631C58.5574 19.651 59.8558 23.5324 59.8558 27.699C59.8558 31.6915 58.6649 35.4138 56.5756 38.5027C56.3607 38.8209 56.5517 39.2501 56.9308 39.3162C57.4561 39.4092 57.9933 39.4573 58.5425 39.4723C64.0194 39.6164 68.9351 36.0712 70.2932 30.7309" fill="#FFC51E"/>
<path d="M76.0309 49.3899C75.0281 47.2406 72.6075 45.7667 68.9274 45.0432C67.1903 44.617 62.4895 44.0166 58.1169 44.0976C58.0512 44.1066 58.0154 44.1517 58.0095 44.1817C58.0005 44.2237 58.0184 44.2958 58.105 44.3408C60.1256 45.3464 67.9365 49.7201 66.9545 58.9448C66.9127 59.344 67.2321 59.6893 67.6291 59.6292C69.5512 59.353 74.4968 58.2844 76.0309 54.9553C76.8786 53.1962 76.8786 51.152 76.0309 49.3899" fill="#FFC51E"/>
<path opacity="0.4" d="M23.4827 15.9327C22.7216 15.7766 21.9366 15.6896 21.1188 15.6896C13.5975 15.6896 7.69079 22.807 9.70843 30.7319C11.0635 36.0722 15.9792 39.6174 21.4561 39.4733C22.0053 39.4583 22.5455 39.4072 23.0678 39.3172C23.4469 39.2511 23.6379 38.8219 23.423 38.5037C21.3337 35.4118 20.1429 31.6925 20.1429 27.7C20.1429 23.5304 21.4442 19.649 23.7036 16.4641C23.7752 16.365 23.8289 16.2119 23.7573 16.0978C23.6976 16.0048 23.5872 15.9567 23.4827 15.9327" fill="#FFC51E"/>
<path d="M11.0718 45.0422C7.39173 45.7657 4.97414 47.2396 3.97129 49.3889C3.12065 51.151 3.12065 53.1952 3.97129 54.9573C5.50541 58.2834 10.451 59.355 12.3731 59.6282C12.7701 59.6883 13.0865 59.346 13.0447 58.9438C12.0627 49.7221 19.8736 45.3484 21.8972 44.3428C21.9808 44.2947 21.9987 44.2257 21.9898 44.1807C21.9838 44.1507 21.951 44.1056 21.8853 44.0996C17.5098 44.0156 12.8119 44.6159 11.0718 45.0422" fill="#FFC51E"/>
</svg>
