<svg width="1087" height="12" viewBox="0 0 1087 12" fill="none" xmlns="http://www.w3.org/2000/svg">
<path d="M0.666667 6C0.666667 8.94552 3.05448 11.3333 6 11.3333C8.94552 11.3333 11.3333 8.94552 11.3333 6C11.3333 3.05448 8.94552 0.666667 6 0.666667C3.05448 0.666667 0.666667 3.05448 0.666667 6ZM1075.67 6C1075.67 8.94552 1078.05 11.3333 1081 11.3333C1083.95 11.3333 1086.33 8.94552 1086.33 6C1086.33 3.05448 1083.95 0.666667 1081 0.666667C1078.05 0.666667 1075.67 3.05448 1075.67 6ZM6 7H1081V5H6V7Z" fill="#0F7C83"/>
</svg>
