<svg width="1080" height="12" viewBox="0 0 1080 12" fill="none" xmlns="http://www.w3.org/2000/svg">
<path d="M0.166667 6C0.166667 8.94552 2.55448 11.3333 5.5 11.3333C8.44552 11.3333 10.8333 8.94552 10.8333 6C10.8333 3.05448 8.44552 0.666667 5.5 0.666667C2.55448 0.666667 0.166667 3.05448 0.166667 6ZM1069.17 6C1069.17 8.94552 1071.55 11.3333 1074.5 11.3333C1077.45 11.3333 1079.83 8.94552 1079.83 6C1079.83 3.05448 1077.45 0.666667 1074.5 0.666667C1071.55 0.666667 1069.17 3.05448 1069.17 6ZM5.5 7H1074.5V5H5.5V7Z" fill="#0F7C83"/>
</svg>
