<svg width="1083" height="12" viewBox="0 0 1083 12" fill="none" xmlns="http://www.w3.org/2000/svg">
<path d="M0.666667 6C0.666667 8.94552 3.05448 11.3333 6 11.3333C8.94552 11.3333 11.3333 8.94552 11.3333 6C11.3333 3.05448 8.94552 0.666667 6 0.666667C3.05448 0.666667 0.666667 3.05448 0.666667 6ZM1071.67 6C1071.67 8.94552 1074.05 11.3333 1077 11.3333C1079.95 11.3333 1082.33 8.94552 1082.33 6C1082.33 3.05448 1079.95 0.666667 1077 0.666667C1074.05 0.666667 1071.67 3.05448 1071.67 6ZM6 7H1077V5H6V7Z" fill="#0F7C83"/>
</svg>
