<svg width="91" height="92" viewBox="0 0 91 92" fill="none" xmlns="http://www.w3.org/2000/svg">
<path d="M45.5 9.03125C38.1883 9.03125 31.0408 11.1994 24.9613 15.2616C18.8818 19.3238 14.1434 25.0975 11.3453 31.8527C8.54727 38.6078 7.81516 46.041 9.24161 53.2123C10.6681 60.3835 14.189 66.9707 19.3592 72.1409C24.5293 77.311 31.1165 80.832 38.2878 82.2584C45.459 83.6849 52.8922 82.9528 59.6473 80.1547C66.4025 77.3566 72.1762 72.6182 76.2384 66.5387C80.3006 60.4593 82.4688 53.3117 82.4688 46C82.45 36.2011 78.549 26.8088 71.6201 19.8799C64.6912 12.951 55.299 9.05004 45.5 9.03125V9.03125ZM58.4391 48.3816L41.3766 59.7566C40.906 60.0479 40.3658 60.2074 39.8125 60.2188C39.3435 60.2184 38.8811 60.1089 38.4617 59.8988C38.0071 59.6534 37.6279 59.2888 37.3649 58.8442C37.1018 58.3995 36.9649 57.8916 36.9688 57.375V34.625C36.9649 34.1084 37.1018 33.6005 37.3649 33.1558C37.6279 32.7112 38.0071 32.3466 38.4617 32.1012C38.9182 31.8701 39.4269 31.7617 39.938 31.7866C40.449 31.8116 40.9448 31.969 41.3766 32.2434L58.4391 43.6184C58.8352 43.8768 59.1605 44.2299 59.3857 44.6458C59.611 45.0616 59.7289 45.5271 59.7289 46C59.7289 46.4729 59.611 46.9384 59.3857 47.3542C59.1605 47.7701 58.8352 48.1232 58.4391 48.3816V48.3816Z" fill="white"/>
</svg>
