<svg width="69" height="51" viewBox="0 0 69 51" fill="none" xmlns="http://www.w3.org/2000/svg">
<mask id="path-1-inside-1_30_985" fill="white">
<path fill-rule="evenodd" clip-rule="evenodd" d="M55.0556 50.9382C63.2191 45.8053 68.4843 37.7176 68.4843 28.6195C68.4843 13.1072 53.1781 0.531982 34.2969 0.531982C15.4157 0.531982 0.109497 13.1072 0.109497 28.6195C0.109497 37.7176 5.37465 45.8053 13.5382 50.9382H55.0556Z"/>
</mask>
<path fill-rule="evenodd" clip-rule="evenodd" d="M55.0556 50.9382C63.2191 45.8053 68.4843 37.7176 68.4843 28.6195C68.4843 13.1072 53.1781 0.531982 34.2969 0.531982C15.4157 0.531982 0.109497 13.1072 0.109497 28.6195C0.109497 37.7176 5.37465 45.8053 13.5382 50.9382H55.0556Z" fill="#54DBEE"/>
<path d="M55.0556 50.9382V52.0731H55.3827L55.6597 51.899L55.0556 50.9382ZM13.5382 50.9382L12.9341 51.899L13.211 52.0731H13.5382V50.9382ZM67.3494 28.6195C67.3494 37.2505 62.3556 45.0078 54.4515 49.9775L55.6597 51.899C64.0827 46.6029 69.6191 38.1847 69.6191 28.6195H67.3494ZM34.2969 1.66683C52.7701 1.66683 67.3494 13.9324 67.3494 28.6195H69.6191C69.6191 12.282 53.586 -0.602869 34.2969 -0.602869V1.66683ZM1.24435 28.6195C1.24435 13.9324 15.8237 1.66683 34.2969 1.66683V-0.602869C15.0077 -0.602869 -1.02535 12.282 -1.02535 28.6195H1.24435ZM14.1422 49.9775C6.23818 45.0078 1.24435 37.2505 1.24435 28.6195H-1.02535C-1.02535 38.1847 4.51112 46.6029 12.9341 51.899L14.1422 49.9775ZM13.5382 52.0731H55.0556V49.8034H13.5382V52.0731Z" fill="black" mask="url(#path-1-inside-1_30_985)"/>
</svg>
