<svg width="154" height="71" viewBox="0 0 154 71" fill="none" xmlns="http://www.w3.org/2000/svg">
<path d="M26.1961 60.8313L30.2045 67.6868C31.2899 69.5432 33.2789 70.6843 35.4294 70.6843H119.251C121.259 70.6843 123.136 69.6886 124.262 68.0264L129.28 60.6191C129.984 59.5802 131.157 58.9579 132.412 58.9579H138.439C139.763 58.9579 140.991 58.2659 141.676 57.1334L152.891 38.5975C154.417 36.0764 152.602 32.8563 149.655 32.8563H117.922C117.922 32.8563 115.747 1.12743 78.0132 0.890945C40.2794 0.654459 38.5771 32.8563 38.5771 32.8563H4.27748C1.14617 32.8563 -0.629314 36.4434 1.26962 38.9332L15.4066 57.4691C16.1221 58.4073 17.2345 58.9579 18.4145 58.9579H22.9305C24.2746 58.9579 25.5177 59.6711 26.1961 60.8313Z" fill="white"/>
</svg>
